{
  "accessors": [
    {
      "bufferView": 0,
      "componentType": 5125,
      "count": 47973,
      "max": [
        14826
      ],
      "min": [
        0
      ],
      "type": "SCALAR"
    },
    {
      "bufferView": 1,
      "componentType": 5126,
      "count": 14827,
      "max": [
        27.28000490025222,
        36.6689252863767,
        39.97086109627809
      ],
      "min": [
        -34.459914395647985,
        -36.13333226430802,
        -44.903546535794455
      ],
      "type": "VEC3"
    },
    {
      "bufferView": 2,
      "componentType": 5126,
      "count": 14827,
      "max": [
        0.9992106556892395,
        0.9992614984512329
      ],
      "min": [
        0.0007409735699184239,
        0.0013284683227539063
      ],
      "type": "VEC2"
    }
  ],
  "asset": {
    "generator": "3DF Zephyr",
    "version": "2.0"
  },
  "bufferViews": [
    {
      "buffer": 0,
      "byteLength": 191892,
      "target": 34963
    },
    {
      "buffer": 1,
      "byteLength": 177924,
      "target": 34962
    },
    {
      "buffer": 2,
      "byteLength": 118616,
      "target": 34962
    },
    {
      "buffer": 3,
      "byteLength": 604427
    }
  ],
  "buffers": [
    {
      "byteLength": 191892,
      "uri": "data:application/octet-stream;base64,"
    },
    {
      "byteLength": 177924,
      "uri": "data:application/octet-stream;base64,"
    },
    {
      "byteLength": 118616,
      "uri": "data:application/octet-stream;base64,"
    },
    {
      "byteLength": 604427,
      "uri": "data:application/octet-stream;base64,"
    }
  ],
  "extensionsRequired": [
    "KHR_materials_unlit"
  ],
  "extensionsUsed": [
    "KHR_materials_unlit"
  ],
  "images": [
    {
      "bufferView": 3,
      "mimeType": "image/jpeg"
    }
  ],
  "materials": [
    {
      "emissiveFactor": [
        1.0,
        1.0,
        1.0
      ],
      "emissiveTexture": {
        "index": 0
      },
      "pbrMetallicRoughness": {
        "baseColorTexture": {
          "index": 0
        },
        "metallicFactor": 0.0
      }
    }
  ],
  "meshes": [
    {
      "primitives": [
        {
          "attributes": {
            "POSITION": 1,
            "TEXCOORD_0": 2
          },
          "indices": 0,
          "material": 0,
          "mode": 4
        }
      ]
    }
  ],
  "nodes": [
    {
      "mesh": 0
    }
  ],
  "samplers": [
    {
      "wrapS": 10497,
      "wrapT": 10497
    }
  ],
  "scenes": [
    {
      "nodes": [
        0
      ]
    }
  ],
  "textures": [
    {
      "sampler": 0,
      "source": 0
    }
  ]
}
