{
  "accessors": [
    {
      "bufferView": 0,
      "componentType": 5125,
      "count": 57300,
      "max": [
        16984
      ],
      "min": [
        0
      ],
      "type": "SCALAR"
    },
    {
      "bufferView": 1,
      "componentType": 5126,
      "count": 16985,
      "max": [
        17.97289500431293,
        95.33084125650774,
        14.166067951201677
      ],
      "min": [
        -121.93748456787998,
        -14.433681743808544,
        -10.86083757859798
      ],
      "type": "VEC3"
    },
    {
      "bufferView": 2,
      "componentType": 5126,
      "count": 16985,
      "max": [
        0.9990853667259216,
        0.9990370273590088
      ],
      "min": [
        0.0009177454630844295,
        0.1640239953994751
      ],
      "type": "VEC2"
    }
  ],
  "asset": {
    "generator": "3DF Zephyr",
    "version": "2.0"
  },
  "bufferViews": [
    {
      "buffer": 0,
      "byteLength": 229200,
      "target": 34963
    },
    {
      "buffer": 1,
      "byteLength": 203820,
      "target": 34962
    },
    {
      "buffer": 2,
      "byteLength": 135880,
      "target": 34962
    },
    {
      "buffer": 3,
      "byteLength": 760372
    }
  ],
  "buffers": [
    {
      "byteLength": 229200,
      "uri": "data:application/octet-stream;base64,"
    },
    {
      "byteLength": 203820,
      "uri": "data:application/octet-stream;base64,"
    },
    {
      "byteLength": 135880,
      "uri": "data:application/octet-stream;base64,"
    },
    {
      "byteLength": 760372,
      "uri": "data:application/octet-stream;base64,"
    }
  ],
  "extensionsRequired": [
    "KHR_materials_unlit"
  ],
  "extensionsUsed": [
    "KHR_materials_unlit"
  ],
  "images": [
    {
      "bufferView": 3,
      "mimeType": "image/jpeg"
    }
  ],
  "materials": [
    {
      "emissiveFactor": [
        1.0,
        1.0,
        1.0
      ],
      "emissiveTexture": {
        "index": 0
      },
      "pbrMetallicRoughness": {
        "baseColorTexture": {
          "index": 0
        },
        "metallicFactor": 0.0
      }
    }
  ],
  "meshes": [
    {
      "primitives": [
        {
          "attributes": {
            "POSITION": 1,
            "TEXCOORD_0": 2
          },
          "indices": 0,
          "material": 0,
          "mode": 4
        }
      ]
    }
  ],
  "nodes": [
    {
      "mesh": 0
    }
  ],
  "samplers": [
    {
      "wrapS": 10497,
      "wrapT": 10497
    }
  ],
  "scenes": [
    {
      "nodes": [
        0
      ]
    }
  ],
  "textures": [
    {
      "sampler": 0,
      "source": 0
    }
  ]
}
