{
  "accessors": [
    {
      "bufferView": 0,
      "componentType": 5125,
      "count": 23088,
      "max": [
        4429
      ],
      "min": [
        0
      ],
      "type": "SCALAR"
    },
    {
      "bufferView": 1,
      "componentType": 5126,
      "count": 4430,
      "max": [
        6.128156929791149,
        6.235006864048862,
        2.9375094076167834
      ],
      "min": [
        -5.9719147222615305,
        -6.17007247991127,
        -4.66544542678044
      ],
      "type": "VEC3"
    },
    {
      "bufferView": 2,
      "componentType": 5126,
      "count": 4430,
      "max": [
        0.694386899471283,
        0.9991347789764404
      ],
      "min": [
        0.001458602724596858,
        0.0025159716606140137
      ],
      "type": "VEC2"
    }
  ],
  "asset": {
    "generator": "3DF Zephyr",
    "version": "2.0"
  },
  "bufferViews": [
    {
      "buffer": 0,
      "byteLength": 92352,
      "target": 34963
    },
    {
      "buffer": 1,
      "byteLength": 53160,
      "target": 34962
    },
    {
      "buffer": 2,
      "byteLength": 35440,
      "target": 34962
    },
    {
      "buffer": 3,
      "byteLength": 744451
    }
  ],
  "buffers": [
    {
      "byteLength": 92352,
      "uri": "data:application/octet-stream;base64,"
    },
    {
      "byteLength": 53160,
      "uri": "data:application/octet-stream;base64,"
    },
    {
      "byteLength": 35440,
      "uri": "data:application/octet-stream;base64,"
    },
    {
      "byteLength": 744451,
      "uri": "data:application/octet-stream;base64,"
    }
  ],
  "extensionsRequired": [
    "KHR_materials_unlit"
  ],
  "extensionsUsed": [
    "KHR_materials_unlit"
  ],
  "images": [
    {
      "bufferView": 3,
      "mimeType": "image/jpeg"
    }
  ],
  "materials": [
    {
      "emissiveFactor": [
        1.0,
        1.0,
        1.0
      ],
      "emissiveTexture": {
        "index": 0
      },
      "pbrMetallicRoughness": {
        "baseColorTexture": {
          "index": 0
        },
        "metallicFactor": 0.0
      }
    }
  ],
  "meshes": [
    {
      "primitives": [
        {
          "attributes": {
            "POSITION": 1,
            "TEXCOORD_0": 2
          },
          "indices": 0,
          "material": 0,
          "mode": 4
        }
      ]
    }
  ],
  "nodes": [
    {
      "mesh": 0
    }
  ],
  "samplers": [
    {
      "wrapS": 10497,
      "wrapT": 10497
    }
  ],
  "scenes": [
    {
      "nodes": [
        0
      ]
    }
  ],
  "textures": [
    {
      "sampler": 0,
      "source": 0
    }
  ]
}
