{
  "accessors": [
    {
      "bufferView": 0,
      "componentType": 5125,
      "count": 16155,
      "max": [
        3428
      ],
      "min": [
        0
      ],
      "type": "SCALAR"
    },
    {
      "bufferView": 1,
      "componentType": 5126,
      "count": 3429,
      "max": [
        15.959682243321136,
        20.7287737846601,
        13.212693100339939
      ],
      "min": [
        -18.09505587148321,
        -18.877675598167507,
        -18.22588921104395
      ],
      "type": "VEC3"
    },
    {
      "bufferView": 2,
      "componentType": 5126,
      "count": 3429,
      "max": [
        0.7809476852416992,
        0.9982926845550537
      ],
      "min": [
        0.0018219092162325978,
        0.008728623390197754
      ],
      "type": "VEC2"
    }
  ],
  "asset": {
    "generator": "3DF Zephyr",
    "version": "2.0"
  },
  "bufferViews": [
    {
      "buffer": 0,
      "byteLength": 64620,
      "target": 34963
    },
    {
      "buffer": 1,
      "byteLength": 41148,
      "target": 34962
    },
    {
      "buffer": 2,
      "byteLength": 27432,
      "target": 34962
    },
    {
      "buffer": 3,
      "byteLength": 148587
    }
  ],
  "buffers": [
    {
      "byteLength": 64620,
      "uri": "data:application/octet-stream;base64,"
    },
    {
      "byteLength": 41148,
      "uri": "data:application/octet-stream;base64,"
    },
    {
      "byteLength": 27432,
      "uri": "data:application/octet-stream;base64,"
    },
    {
      "byteLength": 148587,
      "uri": "data:application/octet-stream;base64,"
    }
  ],
  "extensionsRequired": [
    "KHR_materials_unlit"
  ],
  "extensionsUsed": [
    "KHR_materials_unlit"
  ],
  "images": [
    {
      "bufferView": 3,
      "mimeType": "image/jpeg"
    }
  ],
  "materials": [
    {
      "emissiveFactor": [
        1.0,
        1.0,
        1.0
      ],
      "emissiveTexture": {
        "index": 0
      },
      "pbrMetallicRoughness": {
        "baseColorTexture": {
          "index": 0
        },
        "metallicFactor": 0.0
      }
    }
  ],
  "meshes": [
    {
      "primitives": [
        {
          "attributes": {
            "POSITION": 1,
            "TEXCOORD_0": 2
          },
          "indices": 0,
          "material": 0,
          "mode": 4
        }
      ]
    }
  ],
  "nodes": [
    {
      "mesh": 0
    }
  ],
  "samplers": [
    {
      "wrapS": 10497,
      "wrapT": 10497
    }
  ],
  "scenes": [
    {
      "nodes": [
        0
      ]
    }
  ],
  "textures": [
    {
      "sampler": 0,
      "source": 0
    }
  ]
}
