{
    "asset": {
        "version": "2.0",
        "generator": "Open Asset Import Library (assimp v5.2.cf7d3637)"
    },
    "extensionsUsed": [
        "KHR_materials_volume",
        "FB_ngon_encoding"
    ],
    "accessors": [
        {
            "bufferView": 0,
            "byteOffset": 0,
            "componentType": 5126,
            "count": 163884,
            "type": "VEC3",
            "max": [
                0.9867909550666809,
                0.28707897663116457,
                0.6752059459686279
            ],
            "min": [
                -0.9993459582328796,
                -0.26767414808273318,
                -0.6417629718780518
            ]
        },
        {
            "bufferView": 1,
            "byteOffset": 0,
            "componentType": 5126,
            "count": 163884,
            "type": "VEC4",
            "max": [
                0.9058823585510254,
                0.8078431487083435,
                0.5803921818733215,
                1.0
            ],
            "min": [
                0.04313725605607033,
                0.01568627543747425,
                0.0117647061124444,
                1.0
            ]
        },
        {
            "bufferView": 2,
            "byteOffset": 0,
            "componentType": 5125,
            "count": 163884,
            "type": "SCALAR",
            "max": [
                163883
            ],
            "min": [
                0
            ]
        }
    ],
    "buffers": [
        {
            "byteLength": 5244288,
            "uri": "result.bin"
        }
    ],
    "bufferViews": [
        {
            "buffer": 0,
            "byteOffset": 0,
            "byteLength": 1966608,
            "target": 34962
        },
        {
            "buffer": 0,
            "byteOffset": 1966608,
            "byteLength": 2622144,
            "target": 34962
        },
        {
            "buffer": 0,
            "byteOffset": 4588752,
            "byteLength": 655536,
            "target": 34963
        }
    ],
    "materials": [
        {
            "name": "material"
        }
    ],
    "meshes": [
        {
            "name": "geometry_0",
            "primitives": [
                {
                    "mode": 4,
                    "material": 0,
                    "indices": 2,
                    "attributes": {
                        "POSITION": 0,
                        "COLOR_0": 1
                    }
                }
            ]
        }
    ],
    "nodes": [
        {
            "name": "world",
            "children": [
                1
            ]
        },
        {
            "name": "geometry_0",
            "mesh": 0
        }
    ],
    "scenes": [
        {
            "nodes": [
                0
            ]
        }
    ],
    "scene": 0
}