{
    "asset": {
        "version": "2.0",
        "generator": "Open Asset Import Library (assimp v5.0.5eb040c7)"
    },
    "accessors": [
        {
            "bufferView": 0,
            "byteOffset": 0,
            "componentType": 5126,
            "count": 12410,
            "type": "VEC3",
            "max": [
                132.30909729003907,
                69.63600158691406,
                20.03689956665039
            ],
            "min": [
                -32.41400146484375,
                -0.32170000672340395,
                -82.72899627685547
            ]
        },
        {
            "bufferView": 1,
            "byteOffset": 0,
            "componentType": 5126,
            "count": 12410,
            "type": "VEC3",
            "max": [
                0.9999978542327881,
                0.9999990463256836,
                0.9999943971633911
            ],
            "min": [
                -0.9999983310699463,
                -1.0,
                -0.9999964237213135
            ]
        },
        {
            "bufferView": 2,
            "byteOffset": 0,
            "componentType": 5126,
            "count": 12410,
            "type": "VEC2",
            "max": [
                0.989799976348877,
                0.9980999827384949
            ],
            "min": [
                0.0019000000320374966,
                0.001999974250793457
            ]
        },
        {
            "bufferView": 3,
            "byteOffset": 0,
            "componentType": 5125,
            "count": 70248,
            "type": "SCALAR",
            "max": [
                12409
            ],
            "min": [
                0
            ]
        }
    ],
    "buffers": [
        {
            "byteLength": 678112,
            "uri": "result.bin"
        }
    ],
    "bufferViews": [
        {
            "buffer": 0,
            "byteOffset": 0,
            "byteLength": 148920,
            "target": 34962
        },
        {
            "buffer": 0,
            "byteOffset": 148920,
            "byteLength": 148920,
            "target": 34962
        },
        {
            "buffer": 0,
            "byteOffset": 297840,
            "byteLength": 99280,
            "target": 34962
        },
        {
            "buffer": 0,
            "byteOffset": 397120,
            "byteLength": 280992,
            "target": 34963
        }
    ],
    "materials": [
        {
            "name": "DefaultMaterial",
            "pbrMetallicRoughness": {
                "baseColorFactor": [
                    0.6000000238418579,
                    0.6000000238418579,
                    0.6000000238418579,
                    1.0
                ],
                "metallicFactor": 0.0
            }
        }
    ],
    "meshes": [
        {
            "name": "Moooi_BFF_Sofa_B_lowpoly",
            "primitives": [
                {
                    "mode": 4,
                    "material": 0,
                    "indices": 3,
                    "attributes": {
                        "POSITION": 0,
                        "NORMAL": 1,
                        "TEXCOORD_0": 2
                    }
                }
            ]
        }
    ],
    "nodes": [
        {
            "name": "input.obj",
            "children": [
                1,
                2
            ]
        },
        {
            "name": "Moooi_BFF_Sofa_B_lowpoly"
        },
        {
            "name": "Moooi_BFF_Sofa_B_lowpoly_node",
            "mesh": 0
        }
    ],
    "scenes": [
        {
            "nodes": [
                0
            ]
        }
    ],
    "scene": 0
}