{
  "accessors": [
    {
      "bufferView": 0,
      "componentType": 5125,
      "count": 27222,
      "max": [
        5492
      ],
      "min": [
        0
      ],
      "type": "SCALAR"
    },
    {
      "bufferView": 1,
      "componentType": 5126,
      "count": 5493,
      "max": [
        7.421427174795783,
        11.801835159766215,
        9.012282498856809
      ],
      "min": [
        -3.9454727624830124,
        -12.154263840233776,
        -12.183034005131692
      ],
      "type": "VEC3"
    },
    {
      "bufferView": 2,
      "componentType": 5126,
      "count": 5493,
      "max": [
        0.9930260181427002,
        0.9993630051612854
      ],
      "min": [
        0.0005389999714680016,
        0.08239901065826416
      ],
      "type": "VEC2"
    }
  ],
  "asset": {
    "generator": "3DF Zephyr",
    "version": "2.0"
  },
  "bufferViews": [
    {
      "buffer": 0,
      "byteLength": 108888,
      "target": 34963
    },
    {
      "buffer": 1,
      "byteLength": 65916,
      "target": 34962
    },
    {
      "buffer": 2,
      "byteLength": 43944,
      "target": 34962
    },
    {
      "buffer": 3,
      "byteLength": 922734
    }
  ],
  "buffers": [
    {
      "byteLength": 108888,
      "uri": "data:application/octet-stream;base64,"
    },
    {
      "byteLength": 65916,
      "uri": "data:application/octet-stream;base64,"
    },
    {
      "byteLength": 43944,
      "uri": "data:application/octet-stream;base64,"
    },
    {
      "byteLength": 922734,
      "uri": "data:application/octet-stream;base64,"
    }
  ],
  "extensionsRequired": [
    "KHR_materials_unlit"
  ],
  "extensionsUsed": [
    "KHR_materials_unlit"
  ],
  "images": [
    {
      "bufferView": 3,
      "mimeType": "image/jpeg"
    }
  ],
  "materials": [
    {
      "emissiveFactor": [
        1.0,
        1.0,
        1.0
      ],
      "emissiveTexture": {
        "index": 0
      },
      "pbrMetallicRoughness": {
        "baseColorTexture": {
          "index": 0
        },
        "metallicFactor": 0.0
      }
    }
  ],
  "meshes": [
    {
      "primitives": [
        {
          "attributes": {
            "POSITION": 1,
            "TEXCOORD_0": 2
          },
          "indices": 0,
          "material": 0,
          "mode": 4
        }
      ]
    }
  ],
  "nodes": [
    {
      "mesh": 0
    }
  ],
  "samplers": [
    {
      "wrapS": 10497,
      "wrapT": 10497
    }
  ],
  "scenes": [
    {
      "nodes": [
        0
      ]
    }
  ],
  "textures": [
    {
      "sampler": 0,
      "source": 0
    }
  ]
}
