{
  "accessors": [
    {
      "bufferView": 0,
      "componentType": 5125,
      "count": 5970,
      "max": [
        1455
      ],
      "min": [
        0
      ],
      "type": "SCALAR"
    },
    {
      "bufferView": 1,
      "componentType": 5126,
      "count": 1456,
      "max": [
        3.866409625117825,
        2.257800035740165,
        1.522552468081641
      ],
      "min": [
        -3.4254744380788895,
        -3.1105750405855184,
        -1.983149457849107
      ],
      "type": "VEC3"
    },
    {
      "bufferView": 2,
      "componentType": 5126,
      "count": 1456,
      "max": [
        0.9993230104446411,
        0.9934849739074707
      ],
      "min": [
        0.0005329999839887023,
        2.5987625122070313e-05
      ],
      "type": "VEC2"
    }
  ],
  "asset": {
    "generator": "3DF Zephyr",
    "version": "2.0"
  },
  "bufferViews": [
    {
      "buffer": 0,
      "byteLength": 23880,
      "target": 34963
    },
    {
      "buffer": 1,
      "byteLength": 17472,
      "target": 34962
    },
    {
      "buffer": 2,
      "byteLength": 11648,
      "target": 34962
    },
    {
      "buffer": 3,
      "byteLength": 202134
    }
  ],
  "buffers": [
    {
      "byteLength": 23880,
      "uri": "data:application/octet-stream;base64,"
    },
    {
      "byteLength": 17472,
      "uri": "data:application/octet-stream;base64,"
    },
    {
      "byteLength": 11648,
      "uri": "data:application/octet-stream;base64,"
    },
    {
      "byteLength": 202134,
      "uri": "data:application/octet-stream;base64,"
    }
  ],
  "extensionsRequired": [
    "KHR_materials_unlit"
  ],
  "extensionsUsed": [
    "KHR_materials_unlit"
  ],
  "images": [
    {
      "bufferView": 3,
      "mimeType": "image/jpeg"
    }
  ],
  "materials": [
    {
      "emissiveFactor": [
        1.0,
        1.0,
        1.0
      ],
      "emissiveTexture": {
        "index": 0
      },
      "pbrMetallicRoughness": {
        "baseColorTexture": {
          "index": 0
        },
        "metallicFactor": 0.0
      }
    }
  ],
  "meshes": [
    {
      "primitives": [
        {
          "attributes": {
            "POSITION": 1,
            "TEXCOORD_0": 2
          },
          "indices": 0,
          "material": 0,
          "mode": 4
        }
      ]
    }
  ],
  "nodes": [
    {
      "mesh": 0
    }
  ],
  "samplers": [
    {
      "wrapS": 10497,
      "wrapT": 10497
    }
  ],
  "scenes": [
    {
      "nodes": [
        0
      ]
    }
  ],
  "textures": [
    {
      "sampler": 0,
      "source": 0
    }
  ]
}
